<?xml version="1.0" standalone="no"?>
<!DOCTYPE svg PUBLIC "-//W3C//DTD SVG 20010904//EN"
 "http://www.w3.org/TR/2001/REC-SVG-20010904/DTD/svg10.dtd">
<svg version="1.0" xmlns="http://www.w3.org/2000/svg"
 width="1858.000000pt" height="496.000000pt" viewBox="0 0 1858.000000 496.000000"
 preserveAspectRatio="xMidYMid meet">
<metadata>
Created by potrace 1.16, written by Peter Selinger 2001-2019
</metadata>
<g transform="translate(0.000000,496.000000) scale(0.100000,-0.100000)"
fill="#000000" stroke="none">
<path d="M1655 3973 c-334 -28 -655 -180 -895 -422 -84 -85 -186 -217 -238
-309 -118 -208 -202 -510 -202 -728 l0 -63 43 -11 c23 -6 65 -17 92 -25 94
-26 460 -115 473 -115 6 0 12 5 12 11 0 22 72 100 111 119 112 58 223 25 280
-82 10 -21 25 -38 32 -38 6 0 26 -13 42 -30 42 -41 52 -54 59 -78 4 -12 14
-22 22 -22 8 0 14 -4 14 -10 0 -5 6 -10 14 -10 16 0 76 -77 76 -96 0 -7 19
-23 42 -36 62 -34 98 -91 105 -167 5 -54 10 -65 40 -91 18 -17 44 -30 56 -30
27 0 64 32 77 66 13 34 0 61 -60 124 -62 66 -82 94 -73 103 13 14 26 5 113
-83 101 -102 122 -109 171 -61 44 45 40 80 -18 144 -27 29 -51 55 -56 58 -12
9 -57 72 -57 81 0 26 41 -3 120 -84 78 -80 95 -92 124 -92 37 0 61 18 76 60
15 38 5 62 -54 124 -66 68 -96 109 -96 126 0 28 23 12 110 -71 51 -49 97 -85
108 -85 11 0 34 12 51 26 24 20 31 34 31 62 0 43 -13 68 -29 58 -6 -4 -9 -2
-6 6 3 7 -80 97 -194 211 -187 185 -201 197 -236 197 -23 0 -58 -11 -89 -29
-200 -112 -240 -127 -308 -116 -54 9 -134 88 -144 141 -12 62 2 142 32 185 23
33 109 104 175 144 82 49 129 81 129 85 0 12 -78 49 -116 55 -71 12 -207 -49
-379 -168 -58 -41 -63 -42 -135 -41 -53 0 -107 10 -185 33 -60 18 -130 37
-155 43 -25 5 -49 13 -53 18 -10 9 58 121 124 205 58 74 182 194 241 232 24
15 51 35 61 44 19 17 181 99 232 117 219 79 458 90 697 31 146 -35 195 -37
234 -7 40 31 44 38 44 81 0 41 -14 74 -39 95 -100 80 -410 135 -646 115z
m-967 -1181 l3 -112 49 0 c49 0 50 -1 50 -30 l0 -30 -75 0 -75 0 0 138 c0 76
3 142 7 146 4 4 14 5 23 4 12 -3 16 -24 18 -116z m270 98 c10 -11 31 -47 47
-80 16 -33 31 -60 34 -60 3 0 6 35 6 77 0 75 1 78 24 78 l23 0 0 -140 c-1
-129 -2 -140 -20 -143 -23 -4 -32 6 -76 92 l-35 70 -3 -80 c-3 -75 -4 -79 -26
-79 -23 0 -23 0 -23 138 0 75 1 139 1 142 0 13 31 3 48 -15z m233 -40 c3 -30
6 -50 7 -44 1 6 18 32 38 57 28 36 43 47 65 47 41 0 42 -13 3 -51 -19 -18 -32
-39 -29 -47 2 -7 1 -11 -4 -8 -5 3 -13 0 -19 -7 -7 -8 3 -33 34 -87 24 -41 44
-78 44 -82 0 -5 -13 -8 -29 -8 -26 0 -34 8 -63 60 -18 33 -36 56 -40 52 -4 -4
-8 -29 -10 -57 -3 -45 -5 -50 -26 -50 -23 0 -23 1 -23 135 0 74 0 139 0 143 1
5 11 7 24 5 19 -3 23 -11 28 -58z"/>
<path d="M2569 3721 c-46 -15 -78 -42 -99 -85 -36 -76 -21 -146 44 -204 31
-27 44 -32 89 -32 69 0 115 26 144 80 30 57 30 112 -2 165 -35 60 -116 95
-176 76z"/>
<path d="M8513 3581 c-45 -12 -123 -59 -156 -95 -82 -89 -164 -258 -202 -418
-59 -247 -83 -698 -51 -978 46 -403 143 -647 305 -767 133 -99 295 -69 403 73
107 140 169 355 194 667 l6 87 -111 0 c-61 0 -111 -3 -111 -7 -5 -147 -40
-296 -86 -366 -44 -66 -118 -94 -186 -68 -69 26 -133 135 -168 284 -55 235
-50 683 10 907 32 121 103 221 170 241 134 40 231 -93 255 -351 l6 -65 110 0
c90 0 109 3 109 15 0 8 -5 64 -10 124 -33 347 -155 612 -319 695 -45 23 -123
33 -168 22z"/>
<path d="M16773 3576 c-178 -56 -314 -311 -380 -711 -26 -160 -26 -709 0 -874
69 -433 209 -681 408 -721 142 -28 264 53 354 235 72 145 111 315 130 563 l6
82 -109 0 c-124 0 -122 1 -122 -87 0 -97 -49 -256 -96 -312 -44 -53 -132 -67
-191 -32 -68 42 -125 166 -160 346 -21 110 -29 477 -14 614 37 323 138 493
277 466 45 -8 106 -64 133 -121 25 -52 51 -166 52 -227 1 -72 1 -72 122 -72
l109 0 -7 80 c-27 350 -130 617 -283 728 -72 54 -148 68 -229 43z"/>
<path d="M3858 3570 c-115 -35 -223 -182 -274 -375 -28 -103 -27 -459 0 -560
55 -203 144 -301 370 -409 88 -42 162 -105 182 -153 21 -49 18 -199 -5 -248
-36 -79 -89 -115 -169 -115 -60 0 -118 38 -156 102 -31 54 -62 170 -71 271
l-7 77 -106 0 -105 0 7 -122 c21 -396 131 -655 316 -746 73 -36 172 -37 242
-3 61 29 138 108 176 180 140 261 149 714 21 961 -66 127 -127 181 -306 269
-162 81 -203 127 -203 229 0 113 47 183 135 203 50 11 57 10 102 -12 74 -37
107 -107 123 -261 4 -43 9 -81 11 -83 3 -2 49 -5 104 -6 l99 -2 -3 99 c-10
362 -132 638 -309 698 -49 17 -129 20 -174 6z"/>
<path d="M1804 3517 c17 -29 43 -77 56 -105 16 -34 31 -52 42 -52 10 0 18 4
18 10 0 5 29 46 65 90 36 44 65 83 65 85 0 3 -10 5 -22 5 -22 0 -33 -13 -115
-128 -14 -20 -9 -26 -55 71 -32 65 -42 77 -62 77 l-25 0 33 -53z"/>
<path d="M1555 3543 c-38 -8 -71 -15 -71 -16 -1 -1 9 -46 24 -99 20 -80 29
-98 44 -98 17 0 18 5 12 49 l-6 49 38 4 c55 7 71 0 93 -38 13 -21 28 -34 41
-34 19 0 20 2 5 29 -8 16 -22 36 -30 45 -15 15 -15 18 4 42 26 33 26 39 1 64
-24 24 -57 24 -155 3z"/>
<path d="M4576 3528 c-8 -30 -7 -2176 0 -2205 l6 -23 399 0 398 0 0 220 c0
121 -1 221 -2 222 -1 1 -132 5 -292 8 l-290 5 -3 243 -2 242 265 0 265 0 0
220 0 220 -265 0 -265 0 0 210 0 210 283 0 282 0 -3 225 -3 225 -383 0 -384 0
-6 -22z"/>
<path d="M5588 3544 c-5 -4 -8 -511 -8 -1126 l0 -1118 110 0 110 0 0 435 0
435 112 0 111 0 38 -39 c20 -22 47 -65 58 -97 12 -31 44 -194 71 -363 28 -168
53 -321 56 -338 l5 -33 119 0 c91 0 118 3 115 13 -2 6 -32 174 -65 372 -62
372 -89 497 -121 572 l-18 43 33 53 c145 230 158 723 27 1012 -35 76 -71 118
-130 153 l-46 27 -285 3 c-157 2 -288 0 -292 -4z m536 -439 c19 -9 43 -34 57
-58 22 -39 24 -53 24 -177 0 -117 -3 -140 -20 -169 -41 -69 -59 -76 -231 -79
l-154 -4 0 251 0 251 146 0 c111 0 154 -4 178 -15z"/>
<path d="M6548 3545 c-2 -3 4 -49 13 -102 10 -54 32 -177 49 -273 17 -96 56
-310 86 -475 30 -165 68 -374 84 -465 16 -91 52 -293 80 -450 28 -157 59 -328
68 -380 l17 -95 97 -3 96 -3 6 28 c9 48 63 343 125 698 34 187 65 363 71 390
6 28 26 138 45 245 55 312 113 636 135 754 11 61 20 116 20 123 0 10 -27 13
-114 13 l-114 0 -6 -27 c-3 -16 -26 -149 -51 -298 -25 -148 -61 -360 -80 -470
-19 -110 -43 -254 -55 -320 -11 -66 -24 -145 -30 -175 -5 -30 -17 -100 -26
-155 -13 -72 -19 -94 -25 -80 -7 17 -101 553 -128 730 -4 28 -36 218 -71 423
l-64 372 -111 0 c-62 0 -114 -2 -117 -5z"/>
<path d="M7680 2425 l0 -1125 105 0 105 0 0 1125 0 1125 -105 0 -105 0 0
-1125z"/>
<path d="M9210 2425 l0 -1125 400 0 400 0 -2 223 -3 222 -290 2 c-159 1 -289
5 -287 8 1 3 2 113 2 245 l0 240 260 0 260 0 0 220 0 220 -260 0 -260 0 0 210
0 210 280 0 280 0 0 225 0 225 -390 0 -390 0 0 -1125z"/>
<path d="M10650 3548 c0 -2 -1 -508 -3 -1126 l-2 -1122 338 0 337 0 0 220 0
220 -227 2 -228 3 -3 903 -2 902 -105 0 c-58 0 -105 -1 -105 -2z"/>
<path d="M11510 2425 l0 -1125 105 0 105 0 0 1125 0 1125 -105 0 -105 0 0
-1125z"/>
<path d="M11960 2424 l0 -1124 105 0 105 0 0 670 c0 369 4 670 8 670 5 0 19
-37 32 -82 13 -46 33 -114 46 -153 12 -38 32 -101 43 -140 12 -38 24 -76 26
-83 3 -7 5 -14 6 -17 4 -16 65 -216 109 -355 49 -157 117 -378 144 -465 l12
-40 99 -3 100 -3 0 1126 0 1125 -101 0 c-101 0 -102 0 -108 -26 -4 -14 -6
-318 -6 -676 1 -357 -1 -652 -4 -655 -2 -3 -10 15 -16 38 -7 24 -24 82 -40
129 -15 47 -39 123 -53 170 -89 294 -191 629 -257 840 -21 69 -42 138 -46 153
l-6 28 -99 -2 -99 -1 0 -1124z"/>
<path d="M13040 2425 l0 -1125 105 0 105 0 2 348 c0 191 2 365 4 387 3 41 75
217 92 223 4 1 64 -165 131 -370 68 -205 140 -421 160 -480 l36 -108 137 0
136 0 -64 188 c-36 103 -80 232 -98 287 -97 287 -274 803 -279 811 -3 5 19 59
49 119 29 61 62 130 73 155 18 41 105 226 167 354 13 28 24 56 24 63 0 7 5 13
10 13 6 0 10 5 10 10 0 6 25 62 55 125 30 64 55 118 55 120 0 3 -66 4 -147 3
l-147 -3 -86 -185 c-47 -102 -97 -213 -112 -245 -154 -341 -197 -432 -200
-420 -3 17 -4 88 -6 476 l-2 376 -105 2 -105 2 0 -1126z"/>
<path d="M14396 3542 c-3 -5 -4 -105 -3 -223 l2 -214 158 -3 157 -3 0 -899 0
-900 110 0 110 0 0 898 0 897 155 3 155 3 0 224 0 225 -419 0 c-231 0 -422 -4
-425 -8z"/>
<path d="M15400 2425 l0 -1125 400 0 400 0 0 225 0 224 -287 0 -288 0 -3 245
-2 246 260 0 260 0 0 220 0 220 -260 0 -260 0 0 210 0 210 280 0 280 0 0 225
0 225 -390 0 -390 0 0 -1125z"/>
<path d="M17490 2425 l0 -1125 110 0 110 0 0 478 -1 477 201 3 200 2 0 -480 0
-480 110 0 110 0 -2 1123 -3 1122 -107 3 -108 3 0 -421 0 -420 -200 0 -200 0
-2 418 -3 417 -107 3 -108 3 0 -1126z"/>
<path d="M1292 3458 c-51 -22 -92 -46 -90 -52 2 -6 22 -48 45 -93 l42 -81 78
34 c43 18 84 34 91 34 6 0 12 7 12 15 0 19 4 20 -80 -11 -69 -25 -72 -25 -85
-7 -21 27 -14 36 56 65 35 14 65 31 67 37 6 17 -17 13 -83 -14 l-60 -25 -18
22 c-10 11 -14 25 -10 29 5 5 39 21 77 36 38 15 71 34 74 41 6 20 -18 14 -116
-30z"/>
<path d="M2222 3450 c-33 -27 -41 -92 -18 -135 32 -58 136 -93 179 -60 18 13
18 14 0 24 -12 6 -25 6 -34 0 -24 -15 -51 -10 -86 17 -36 27 -43 62 -22 108
24 53 129 36 152 -24 11 -29 34 -46 46 -35 3 4 -3 23 -14 43 -37 69 -152 104
-203 62z"/>
<path d="M2477 3263 c-50 -80 -54 -89 -39 -101 10 -7 24 -18 32 -25 90 -73
112 -89 118 -82 4 4 -20 31 -52 61 -55 50 -58 56 -48 79 6 14 15 25 20 25 5 0
35 -23 66 -50 50 -44 76 -55 76 -32 0 4 -27 29 -60 55 -64 52 -70 65 -42 90
16 15 20 13 58 -21 83 -77 93 -84 105 -77 12 8 -16 36 -123 120 l-57 45 -54
-87z"/>
<path d="M1072 3329 c-56 -22 -112 -85 -112 -126 0 -40 44 -41 117 -4 35 18
71 30 79 27 45 -17 -35 -104 -84 -91 -23 6 -52 -9 -52 -25 0 -18 51 -19 92 -1
55 23 98 73 98 111 0 55 -45 58 -139 11 -73 -38 -99 -5 -35 44 24 18 43 26 60
22 13 -2 32 2 41 9 16 12 16 15 3 24 -18 12 -37 12 -68 -1z"/>
<path d="M1900 3113 c-376 -239 -420 -274 -420 -336 0 -66 57 -123 113 -113
15 3 85 40 155 83 182 110 204 119 272 114 7 -1 115 -102 240 -225 124 -123
235 -229 247 -235 12 -6 36 -11 54 -11 29 0 266 74 324 100 11 5 32 14 48 20
l27 10 0 -79 c0 -229 -107 -524 -260 -716 -60 -75 -177 -187 -256 -243 -75
-54 -239 -134 -329 -161 -157 -48 -380 -65 -535 -41 -220 35 -432 135 -599
285 -74 66 -110 86 -160 88 -90 3 -139 -88 -95 -176 23 -46 136 -149 229 -210
44 -28 82 -54 85 -58 14 -16 180 -91 262 -119 170 -56 275 -73 458 -73 189 0
283 14 441 66 703 233 1122 948 989 1687 -29 162 -113 390 -143 390 -7 0 -78
-23 -158 -51 -211 -74 -370 -126 -405 -133 -47 -10 -76 6 -211 121 -173 147
-166 147 -373 16z m520 -238 c0 -19 -6 -24 -32 -27 l-33 -3 -2 -110 c-2 -103
-3 -110 -22 -113 -20 -3 -21 1 -21 112 l0 116 -35 0 c-31 0 -35 3 -35 25 0 24
2 24 83 27 45 2 85 2 90 0 4 -2 7 -14 7 -27z m190 -1 c0 -23 -3 -24 -60 -24
l-60 0 0 -30 c0 -30 1 -30 55 -30 52 0 55 -1 55 -25 0 -24 -3 -25 -56 -25
l-55 0 3 -32 3 -33 60 0 c57 0 60 -1 60 -25 0 -25 -1 -25 -83 -25 l-82 0 -3
137 c-1 76 1 139 5 140 4 2 41 2 83 0 72 -3 75 -5 75 -28z m180 19 c28 -16 50
-51 50 -78 0 -25 -40 -17 -52 10 -8 18 -19 25 -39 25 -56 0 -80 -105 -36 -156
28 -32 58 -27 76 12 16 36 47 28 44 -11 -5 -67 -95 -98 -146 -51 -23 22 -29
36 -41 98 -6 30 14 111 32 131 34 38 71 45 112 20z m261 -129 c0 -139 0 -139
-23 -139 -21 0 -23 5 -26 58 -3 48 -6 57 -22 58 -11 1 -28 2 -37 3 -15 1 -18
-9 -21 -61 -3 -54 -6 -63 -22 -63 -26 0 -29 18 -27 155 2 116 3 120 25 123 20
3 22 0 22 -47 l0 -51 43 0 44 0 -3 49 c-3 45 -1 50 19 53 12 2 23 3 25 2 2 -1
3 -64 3 -140z"/>
<path d="M1089 2327 c-68 -46 -99 -147 -63 -202 18 -27 53 -32 100 -15 26 10
26 10 19 -22 -12 -51 -9 -77 11 -100 16 -17 27 -19 73 -14 52 6 53 6 47 -16
-19 -68 -19 -76 9 -103 27 -28 33 -28 109 -9 l26 6 -15 -42 c-20 -57 -19 -67
10 -95 35 -36 89 -34 147 5 65 43 86 103 58 169 -13 33 -65 57 -100 46 -18 -6
-20 -2 -20 39 0 63 -37 106 -91 106 -39 0 -39 0 -39 39 0 54 -26 83 -81 90
-44 6 -44 6 -49 53 -3 26 -8 49 -10 51 -53 43 -92 47 -141 14z"/>
<path d="M485 2038 c-110 -64 -111 -222 -2 -288 66 -40 164 -19 213 45 23 31
28 48 29 95 0 31 -6 69 -14 84 -41 76 -151 107 -226 64z"/>
</g>
</svg>
